<svg fill="none" height="51" viewBox="0 0 56 51" width="56" xmlns="http://www.w3.org/2000/svg"><path d="m51.2999 35.1984c.1248-.2496.1248-.624.2496-.8737 3.1204-12.2321-4.4934-26.71085-17.0999-34.3247 5.6167 7.48903 7.9883 16.7255 5.8664 24.7138-.2497.7489-.3745 1.373-.7489 2.1219-.2497-.1248-.6241-.3745-1.1234-.6241 0 0-12.6065-7.8635-26.3364-21.59339-.3745-.37445 7.3642 10.98389 15.9766 20.09559-4.119-2.2467-15.4774-10.6095-22.71676-17.22477.87372 1.49781 1.99708 2.87077 3.12043 4.24377 5.99123 7.6139 13.85473 17.1 23.34083 24.3394-6.6153 3.9941-15.9766 4.3686-25.33791 0-2.24671-1.1234-4.49341-2.3716-6.49049-3.8694 3.99415 6.3657 9.98538 11.7328 17.4744 14.9781 8.862 3.7445 17.5992 3.4949 24.0897.1248h.1248c.2497-.1248.4993-.2496.7489-.4993 3.1205-1.6226 9.3613-3.2452 12.7314 3.2453.7489 1.373 2.4964-7.1146-3.8693-14.8533z" fill="#fff"/></svg>