<svg fill="none" height="50" viewBox="0 0 48 50" width="48" xmlns="http://www.w3.org/2000/svg"><path d="m0 34.511c0-.7628.105501-1.4065.31493-1.9277.20212-.497.51648-.9395.91802-1.2921.39682-.3297.85836-.5707 1.3542-.7072.51648-.1463 1.07076-.2194 1.66912-.2194.53931-.0034 1.07637.0705 1.59512.2194.51491.1462.96684.3814 1.3542.7072s.69284.7565.91802 1.2921c.22517.5212.33855 1.1633.33855 1.9277 0 .7311-.11338 1.3573-.33855 1.8785-.207.4943-.52062.9357-.91802 1.2921-.38579.3417-.83771.5849-1.3542.7311-.51586.1646-1.05409.2466-1.59512.2431-.59836 0-1.15264-.0794-1.66912-.2431-.50011-.1379-.96299-.3878-1.3542-.7311-.387364-.3417-.692846-.7724-.91802-1.2921-.209429-.5196-.31493-1.1442-.31493-1.8785zm13.6302 15.489c-.7874 0-1.5715-.0572-2.3935-.1701-.822-.1128-1.50695-.2606-2.05335-.4386v-5.8532c.49916.1621.96685.2765 1.41715.3416.4867.085.98.126 1.4739.1224.4031 0 .781-.0636 1.1337-.1955.3768-.1111.7081-.3418.9448-.6579.274-.3083.4913-.7311.6519-1.2682.1607-.5197.241-1.1952.241-2.0248v-29.1232h7.3693v30.2198c0 1.2524-.1606 2.4221-.4834 3.4964-.2798 1.0603-.8012 2.0399-1.5227 2.8607-.6928.8296-1.5951 1.478-2.7084 1.9516s-2.4643.7072-4.0594.7072zm1.1132-46.3493c0-.69928.1055-1.27618.315-1.74819.2094-.47201.4912-.84549.8455-1.122021.3701-.292425.7968-.495851 1.2802-.610278.4992-.1144267 1.0236-.17005093 1.5715-.17005093.5202-.00359776 1.0391.05346413 1.5463.17005093.4599.102926.89.311794 1.2566.610278.3818.290991.6815.677831.8692 1.122021.2252.45612.3386 1.03302.3386 1.74819 0 .68338-.1134 1.26029-.3386 1.74819-.2094.47201-.4992.85344-.8692 1.14427-.374.28654-.8013.49409-1.2566.61028-.5071.11712-1.026.17472-1.5463.17164-.5479 0-1.0707-.05563-1.5715-.17164-.4611-.11985-.8955-.32694-1.2802-.61028-.3543-.29242-.6361-.67544-.8455-1.14427-.2095-.46883-.315-1.04891-.315-1.74819zm33.2566 26.2515c0 1.4303-.2582 2.6826-.7873 3.7554-.5053 1.0621-1.2605 1.9831-2.1998 2.6827-.9511.7151-2.1022 1.2523-3.4564 1.6099s-2.8658.5372-4.5428.5372c-.8865 0-1.7085-.0318-2.4643-.0954-.7218-.0447-1.4402-.1344-2.151-.2686-.6771-.1303-1.329-.2924-1.9573-.4879-.6505-.2037-1.2879-.4478-1.9085-.731v-6.1441c.6771.3417 1.3857.6357 2.1258.9265l2.247.7311 2.151.464c.647.1086 1.3014.1655 1.9573.1701.6613 0 1.2251-.0556 1.6912-.1701.4676-.1303.8455-.3178 1.1337-.5117.3055-.2273.5244-.4879.6519-.7946.1438-.3048.2181-.6383.2173-.9758 0-.3417-.0567-.6421-.1685-.9027-.0945-.2766-.3149-.5611-.7007-.8535-.37-.3083-.918-.6357-1.6439-1.0235l-2.8753-1.4303-3.0706-1.5861c-.8535-.5372-1.5621-1.1125-2.1258-1.78-.5492-.6527-.9679-1.4067-1.2329-2.2202-.274-.8455-.4094-1.8435-.4094-3.0005 0-1.2682.2409-2.3744.7243-3.3168.4795-.9549 1.1847-1.7758 2.0533-2.3903.8866-.6357 1.9495-1.1061 3.1903-1.4303 1.2565-.3258 2.6501-.4879 4.1807-.4879 1.6108 0 3.1414.1875 4.5916.561 1.4503.3735 2.9399.9345 4.472 1.6846l-2.2234 5.2684c-1.225-.5848-2.3934-1.0648-3.5036-1.4382-1.0743-.3676-2.2006-.5571-3.3351-.561-.9983 0-1.7242.1795-2.173.5371-.4346.3576-.6519.8455-.6519 1.4621 0 .3258.0567.6358.1685.8789.1134.2448.3386.5038.6771.7946.3386.2607.8141.5531 1.4251.8773l2.3934 1.1443 3.0926 1.5098c.8626.4481 1.6596 1.0145 2.3683 1.683.6545.6256 1.1731 1.3816 1.5227 2.2202.3543.8455.5322 1.8706.5322 3.0737" fill="#fff"/></svg>